<svg width="200" height="200" viewBox="0 0 200 200" fill="none" xmlns="http://www.w3.org/2000/svg">
<path d="M110.245 10.8303C120.644 8.02464 126.9 15.6872 129.677 19.1589C130.372 20.5472 131.063 19.852 133.149 19.1589C140.088 15.6872 153.967 12.2185 159.52 14.301C164.382 17.0744 167.848 28.8748 167.848 36.5094C167.848 37.8976 167.848 38.5907 169.239 39.9811C172.013 42.0646 176.178 50.3943 169.934 61.4974C169.239 62.1926 168.542 62.8878 169.239 64.274C171.32 67.7457 173.402 77.4627 174.097 80.9324C174.097 83.711 174.792 83.0158 176.18 83.0158C178.262 83.0158 185.2 83.71 187.977 83.71C190.753 84.4031 193.53 87.8748 187.977 87.8748H177.566C175.481 87.8748 174.097 87.8748 174.097 89.9562C174.097 91.3445 173.402 96.8987 173.402 97.5918C173.402 98.98 174.097 99.6731 176.18 100.368C178.262 100.368 183.814 101.757 185.2 102.45C185.895 102.45 187.285 104.532 185.2 105.228C183.119 105.923 178.261 105.228 174.792 104.532C172.704 104.532 172.013 105.228 171.32 106.615C171.32 107.308 169.239 112.168 168.542 113.555C167.848 114.944 167.848 114.944 169.239 115.639C170.623 116.333 175.481 119.109 178.261 120.496C182.423 122.582 181.037 126.052 177.565 124.663C175.479 123.97 169.934 121.886 167.848 120.496C165.767 119.804 165.072 119.804 163.685 120.497C159.517 126.745 152.782 131.296 146.33 134.382C132.95 140.788 94.9646 148.671 55.4172 132.992C49.9035 130.808 45.002 127.439 40.8402 123.97C40.1461 123.277 39.4509 123.277 38.0647 123.97C35.9781 125.358 30.4271 128.135 26.9595 130.216C24.875 132.301 22.1026 130.216 24.184 127.441C26.2643 125.358 33.2078 121.193 34.593 120.499C35.9781 120.499 36.6785 119.806 35.2882 118.418C33.8968 117.03 31.8154 113.558 31.1254 111.478C30.426 110.089 29.735 110.089 27.6536 110.089C25.5702 110.785 23.4888 110.785 20.7122 111.478C17.9356 112.171 17.9356 108.7 20.7122 108.008C22.1015 107.31 24.874 105.925 26.2643 105.925C27.6536 105.23 28.3457 105.23 27.6536 103.84C26.9595 102.452 25.5702 96.9018 25.5702 94.8183C24.875 93.43 24.875 93.43 23.4898 93.43C22.1026 93.43 13.7708 94.1252 11.6904 94.1252C8.21766 95.5104 7.52767 91.3466 11.6904 90.6535C13.7708 89.2641 19.3219 89.2641 22.1026 88.57C23.4898 88.57 24.875 88.57 24.875 87.8769C24.186 76.7706 27.6557 67.0506 31.1275 60.8054C32.5137 57.3357 32.5137 58.0288 31.8174 55.2522C29.043 46.9236 28.3478 34.429 33.8988 23.3238C36.6806 19.8531 38.7609 17.0755 45.003 17.0755C50.5562 17.7717 63.4523 22.8527 67.6181 24.9341C70.0181 26.8007 72.418 25.2008 74.8179 24.6664C77.2189 24.1331 90.0185 22.7998 96.687 23.0665C98.0213 21.7332 102.465 12.9272 110.245 10.8303Z" fill="black"/>
<path d="M99.834 55.2523C103.996 57.3358 109.548 58.0289 115.794 55.9444C119.266 54.5592 119.957 53.864 121.348 55.9444C122.739 59.4161 128.981 62.8879 132.452 62.8879C134.533 62.8879 134.533 63.581 135.228 64.9693C136.618 67.0496 140.782 73.9931 148.415 75.3793C152.58 75.3793 157.435 73.9941 162.294 69.8272C163.685 69.1341 164.381 67.7458 165.767 69.8272C167.157 72.6059 168.542 79.5473 168.542 81.6287C168.542 83.0169 167.848 83.7121 167.848 83.7121C165.767 84.4052 162.294 84.4052 160.909 85.1004C158.132 85.7935 158.132 88.5701 159.518 89.2632C161.604 89.9573 163.686 89.2632 165.765 88.5701C167.846 88.5701 168.54 88.5701 168.54 89.9584C168.54 92.0397 168.54 96.2046 167.846 97.5939C167.846 98.9822 167.155 98.9822 166.46 98.9822H162.988C161.602 99.6753 160.907 100.37 161.602 101.759C162.988 103.148 164.379 103.147 165.765 103.147C167.155 103.84 163.684 110.087 162.988 111.476C162.293 113.557 160.907 112.864 159.517 112.864C158.131 112.864 156.049 112.169 155.354 113.557C154.659 114.946 154.659 114.946 156.049 116.335C156.74 117.03 158.826 117.03 158.131 118.418C156.74 120.5 150.497 126.747 138.698 130.912C122.737 136.464 99.1378 137.853 75.5422 132.994C61.6583 130.217 51.9434 126.055 46.3923 121.193C45.0009 120.5 46.3923 119.806 47.0823 119.112C48.4727 119.112 49.862 118.418 49.862 117.03C50.553 116.335 49.862 114.946 47.7817 114.946C47.0823 114.946 44.311 115.642 42.9185 116.335C41.5292 117.03 41.5292 116.335 40.143 115.642C38.0626 113.557 36.6764 110.087 35.9761 109.394C35.2861 108.007 35.9761 108.007 37.3675 107.309C38.7568 107.309 40.8371 106.617 41.5292 105.924C42.2244 105.229 40.8371 103.147 38.7578 103.839H34.5909C33.8947 103.839 33.8957 103.147 33.2057 102.451C32.5137 100.369 31.1274 95.5105 31.1274 94.1243C31.1274 92.7339 31.8174 93.4291 33.2088 93.4291H39.452C40.8413 92.7339 40.8413 90.6525 40.1461 89.9573C39.452 89.2632 35.2892 88.569 32.5137 88.569C29.736 88.569 30.4281 87.8759 30.4281 84.4042C30.4281 76.7707 33.8988 65.6644 38.7609 57.3358C40.1461 55.2523 42.2285 53.172 42.2285 51.7826C42.2285 49.6992 40.1471 48.3109 38.7609 49.6992C37.3716 50.3933 37.3716 51.0875 36.6806 49.6992C32.5147 38.5908 38.3449 26.5051 41.5333 24.0159C45.4845 20.9322 61.7631 28.4028 68.1535 31.5996C69.2191 32.1329 73.0115 31.0653 74.82 30.533C78.2201 29.5327 94.0225 28.6653 94.0225 28.6653C94.0225 28.6653 94.423 28.933 93.622 31.1327C92.821 33.3334 88.045 47.3677 99.834 55.2523Z" fill="white"/>
<path d="M97.7485 42.7587C99.1388 50.3942 103.996 53.1718 113.019 51.7825C115.1 51.0873 117.181 50.3942 117.877 49.6991C118.572 49.0039 118.572 47.6156 118.572 46.9225C117.877 46.2273 111.632 44.8411 112.325 37.8976C113.019 31.6514 118.572 30.2641 119.957 30.2641C124.124 29.5689 126.897 32.3455 127.592 33.0397C128.286 33.7328 129.674 32.3455 129.674 30.9572C128.981 27.4876 125.513 22.6275 123.427 19.852C122.04 18.4637 118.568 14.3009 113.018 15.6861C104.689 18.4637 97.7485 33.7338 97.7485 42.7587Z" fill="#FF9E9E"/>
<path d="M162.294 33.0407C162.294 34.429 162.989 35.8183 160.908 35.1221C157.435 34.43 149.803 35.8183 147.724 36.5104C145.635 37.2056 145.635 37.2056 144.251 35.8183C142.86 34.43 140.779 33.0407 136.618 32.3466C134.533 31.6524 135.228 30.9583 134.533 28.8759C133.844 26.7924 133.844 26.0993 135.228 24.711C142.86 21.2393 149.803 18.4637 154.661 19.1579C160.213 19.1589 161.603 28.1838 162.294 33.0407Z" fill="white"/>
<path d="M123.43 35.8184C122.739 36.5104 119.957 40.6774 119.957 42.0657C119.266 43.4539 116.489 41.3705 116.489 38.5918C117.18 37.2067 117.18 35.8184 119.266 35.1222C121.348 33.7339 124.125 35.8184 123.43 35.8184ZM144.251 48.3119C143.556 53.1719 140.779 55.9454 138.698 57.3357C131.755 60.8054 122.041 55.2523 123.428 46.2284C124.123 42.0657 126.204 38.5918 130.368 37.8987C139.396 34.4291 145.635 42.0657 144.251 48.3119ZM167.157 45.5353C169.934 50.3943 166.462 58.0288 162.989 62.1937C156.742 69.1341 151.887 71.2175 146.33 69.8272C142.86 68.441 140.779 65.6644 139.393 63.5809C139.393 62.1927 140.084 62.1927 140.779 61.4975C142.169 60.8044 142.86 60.1092 143.556 60.8044C146.33 61.4975 150.496 61.4975 152.577 59.4161C154.659 58.0278 155.354 53.863 154.659 51.0874C153.273 48.3109 151.189 47.6157 149.801 46.9226C149.108 46.2274 149.108 44.8412 149.108 44.146C148.413 42.7588 148.413 42.0646 149.108 42.0646C150.496 41.3694 153.273 40.6763 155.354 40.6763C157.435 39.9812 164.381 39.9812 167.157 45.5353Z" fill="#FF9E9E"/>
<path d="M149.11 57.3357C147.724 57.3357 145.635 57.3357 146.33 56.6405C147.028 55.2522 148.415 53.1718 148.415 51.7825C149.11 51.0873 149.803 51.7825 150.498 53.1708C151.191 54.5591 150.498 56.6405 149.11 57.3357Z" fill="#FF9E9E"/>
<path d="M56.1933 99.0868C56.1933 101.863 57.5774 104.639 61.0502 104.639C65.212 104.639 66.6034 101.17 66.6034 98.3937C66.6034 95.6172 65.9071 90.7582 61.0502 90.7582C56.8885 90.7582 56.1933 95.6172 56.1933 99.0868ZM129.461 96.9007C129.461 101.061 131.547 103.839 135.708 103.839C138.483 103.839 140.568 101.061 140.568 97.5938C140.568 92.7337 138.483 90.6523 135.017 90.6523C130.849 90.6523 129.461 94.8172 129.461 96.9007ZM91.0685 108.699C91.0685 113.558 95.2302 115.64 100.091 115.64C105.64 115.64 108.414 112.169 108.414 109.393C108.414 106.618 104.942 103.147 100.091 103.147C93.8388 103.147 91.0685 105.923 91.0685 108.699Z" fill="black"/>
<path d="M95.2302 109.393C95.2302 111.477 97.3106 112.17 100.091 112.17C102.864 112.17 104.254 111.477 104.254 109.393C104.254 107.309 102.173 106.617 99.3909 106.617C97.3106 106.617 95.2302 107.309 95.2302 109.393Z" fill="#F2C831"/>
</svg>
