<svg width="30" height="30" viewBox="0 0 30 30" fill="none" xmlns="http://www.w3.org/2000/svg">
<path d="M0.306131 28.2139C-0.102336 28.6228 -0.102002 29.2855 0.306884 29.6939C0.71577 30.1023 1.37838 30.102 1.78685 29.6932L0.306131 28.2139ZM8.27961 23.1938C8.68808 22.7849 8.68775 22.1223 8.27886 21.7138C7.86996 21.3053 7.20736 21.3056 6.79889 21.7146L8.27961 23.1938ZM19.8259 5.90315L24.1265 10.2083L25.6073 8.7291L21.3066 4.42394L19.8259 5.90315ZM11.1891 24.6265L5.44496 18.8766L3.96424 20.3558L9.70834 26.1058L11.1891 24.6265ZM22.3994 18.1987L19.7243 19.2037L20.4605 21.163L23.1354 20.158L22.3994 18.1987ZM10.8646 10.3117L11.8336 7.66701L9.86833 6.94696L8.89935 9.59167L10.8646 10.3117ZM6.68971 14.1582C7.68241 13.8845 8.43779 13.6922 9.05547 13.2475L7.83259 11.5489C7.5913 11.7226 7.27802 11.8249 6.13342 12.1405L6.68971 14.1582ZM8.89935 9.59167C8.49057 10.7073 8.3627 11.0118 8.16961 11.2384L9.76259 12.5959C10.2562 12.0167 10.51 11.2795 10.8646 10.3117L8.89935 9.59167ZM9.05547 13.2475C9.31652 13.0595 9.55395 12.8408 9.76259 12.5959L8.16961 11.2384C8.07013 11.3551 7.95697 11.4594 7.83259 11.5489L9.05547 13.2475ZM19.7243 19.2037C18.7629 19.565 18.0298 19.8241 17.4555 20.3214L18.8257 21.9037C19.0501 21.7093 19.352 21.5795 20.4605 21.163L19.7243 19.2037ZM17.9351 23.9305C18.2494 22.788 18.3514 22.4749 18.5247 22.2334L16.8241 21.0133C16.3814 21.6305 16.1898 22.3842 15.917 23.3753L17.9351 23.9305ZM17.4555 20.3214C17.2187 20.5265 17.0068 20.7587 16.8241 21.0133L18.5247 22.2334C18.6118 22.112 18.7128 22.0013 18.8257 21.9037L17.4555 20.3214ZM5.44496 18.8766C4.54338 17.9741 3.93201 17.3598 3.53527 16.8614C3.13717 16.3612 3.09607 16.1446 3.09545 16.0475L1.00251 16.0607C1.00763 16.8731 1.41105 17.5533 1.89767 18.1647C2.38567 18.7779 3.09922 19.4899 3.96424 20.3558L5.44496 18.8766ZM6.13342 12.1405C4.95407 12.4657 3.9822 12.7319 3.25523 13.0238C2.53029 13.3147 1.84344 13.7071 1.43792 14.4112L3.25163 15.4557C3.29994 15.3719 3.44216 15.204 4.03499 14.9661C4.62582 14.7289 5.46042 14.4971 6.68971 14.1582L6.13342 12.1405ZM3.09545 16.0475C3.09414 15.8397 3.14807 15.6356 3.25163 15.4557L1.43792 14.4112C1.1491 14.9127 0.998853 15.482 1.00251 16.0607L3.09545 16.0475ZM9.70834 26.1058C10.5788 26.9772 11.2946 27.6959 11.9111 28.1869C12.5258 28.6766 13.2108 29.0822 14.0287 29.0834L14.0319 26.9904C13.935 26.9903 13.718 26.9504 13.2151 26.5498C12.7139 26.1506 12.0964 25.5348 11.1891 24.6265L9.70834 26.1058ZM15.917 23.3753C15.5764 24.6137 15.3433 25.4546 15.1045 26.0496C14.8648 26.6466 14.6957 26.789 14.6111 26.8372L15.6486 28.6551C16.3588 28.2497 16.7541 27.5588 17.0468 26.8291C17.3405 26.0976 17.6081 25.1186 17.9351 23.9305L15.917 23.3753ZM14.0287 29.0834C14.5968 29.0843 15.1552 28.9366 15.6486 28.6551L14.6111 26.8372C14.4346 26.938 14.235 26.9907 14.0319 26.9904L14.0287 29.0834ZM24.1265 10.2083C25.6105 11.6937 26.6372 12.7252 27.267 13.5754C27.886 14.4106 27.9571 14.855 27.8815 15.2046L29.9272 15.6469C30.1922 14.4218 29.7039 13.3485 28.9486 12.3292C28.2044 11.3249 27.0421 10.1653 25.6073 8.7291L24.1265 10.2083ZM23.1354 20.158C25.035 19.4443 26.5726 18.8695 27.6652 18.2631C28.7741 17.6476 29.6622 16.8723 29.9272 15.6469L27.8815 15.2046C27.806 15.554 27.5578 15.9289 26.6494 16.433C25.7249 16.9462 24.364 17.4605 22.3994 18.1987L23.1354 20.158ZM21.3066 4.42394C19.8612 2.97707 18.6947 1.80546 17.6852 1.05597C16.6613 0.295891 15.5823 -0.196002 14.3519 0.0754581L14.8027 2.1193C15.1513 2.04242 15.5965 2.11211 16.4375 2.73645C17.2927 3.37138 18.3312 4.40701 19.8259 5.90315L21.3066 4.42394ZM11.8336 7.66701C12.5614 5.68058 13.0687 4.30379 13.5782 3.36769C14.0791 2.4471 14.4542 2.19621 14.8027 2.1193L14.3519 0.0754581C13.1216 0.346876 12.3493 1.24704 11.7397 2.36729C11.1386 3.47204 10.5722 5.02588 9.86833 6.94696L11.8336 7.66701ZM1.78685 29.6932L8.27961 23.1938L6.79889 21.7146L0.306131 28.2139L1.78685 29.6932Z" fill="#FF9E9E"/>
</svg>
