<svg width="766" height="800" viewBox="0 0 766 800" fill="none" xmlns="http://www.w3.org/2000/svg">
<g clip-path="url(#clip0_447_2)">
<path d="M750 174.987L590.987 175C611.8 156.675 625 129.912 625 100C625 44.775 580.225 0 525 0C469.775 0 425 44.775 425 100V175H375V100C375 44.775 330.225 0 275 0C219.775 0 175 44.775 175 100C175 129.912 188.2 156.675 209.013 175L50 174.987C22.3625 174.987 0 197.363 0 224.988V324.988C0 352.625 22.3625 374.988 50 374.988V749.988C50 777.625 72.3625 799.988 100 799.988H700C727.637 799.988 750 777.625 750 749.988V374.988C777.637 374.988 800 352.625 800 324.988V224.988C800 197.363 777.637 174.987 750 174.987ZM350 774.988H100C86.2 774.988 75 763.788 75 749.988V374.988H350V774.988ZM350 349.988H50C36.2 349.988 25 338.788 25 324.988V224.988C25 211.188 36.2 199.987 50 199.987H350V349.988ZM275 175C233.588 175 200 141.412 200 100C200 58.5875 233.588 25 275 25C316.412 25 350 58.5875 350 100V175H275ZM425 774.988H375V374.988H425V774.988ZM425 349.988H375V199.987H425V349.988ZM450 100C450 58.5875 483.588 25 525 25C566.412 25 600 58.5875 600 100C600 141.412 566.412 175 525 175H450V100ZM725 749.988C725 763.788 713.8 774.988 700 774.988H450V374.988H725V749.988ZM775 324.988C775 338.788 763.8 349.988 750 349.988H450V199.987H750C763.8 199.987 775 211.188 775 224.988V324.988Z" fill="#FF9E9E"/>
<path d="M275 49.9875C247.387 49.9875 225 72.375 225 99.9875C225 127.612 247.387 149.987 275 149.987H300H325V99.9875C325 72.375 302.613 49.9875 275 49.9875ZM300 124.987H275C261.2 124.987 250 113.787 250 99.9875C250 86.1875 261.2 74.9875 275 74.9875C288.8 74.9875 300 86.1875 300 99.9875V124.987Z" fill="#FF9E9E"/>
<path d="M575 99.9875C575 72.375 552.613 49.9875 525 49.9875C497.387 49.9875 475 72.375 475 99.9875V149.987H500H525C552.613 149.987 575 127.612 575 99.9875ZM500 99.9875C500 86.1875 511.2 74.9875 525 74.9875C538.8 74.9875 550 86.1875 550 99.9875C550 113.787 538.8 124.987 525 124.987H500V99.9875Z" fill="#FF9E9E"/>
</g>
<defs>
<clipPath id="clip0_447_2">
<rect width="800" height="800" fill="white"/>
</clipPath>
</defs>
</svg>
