<svg width="219" height="65" viewBox="0 0 219 65" fill="none" xmlns="http://www.w3.org/2000/svg">
<g clip-path="url(#clip0_44_39)">
<path d="M155.564 20.4402C159.272 20.4402 162.261 17.4722 162.261 13.8131C162.261 10.154 159.272 7.19624 155.564 7.19624C151.847 7.19624 148.849 10.154 148.849 13.8131C148.858 17.4722 151.856 20.4402 155.564 20.4402ZM42.4401 14.9718C40.7402 16.1712 38.5454 16.1509 36.8549 14.9312C35.5286 13.8639 34.3425 12.319 32.8014 11.6685C29.4578 9.87959 24.5543 11.2518 22.0886 12.2072C19.6229 13.1423 16.9984 14.5246 14.7569 16.9132C14.1124 17.6044 12.7021 19.6677 15.8777 21.3245C19.0439 22.9609 28.8507 26.8944 31.3724 27.921C33.8755 28.9578 37.5834 30.8991 39.8436 33.8874C41.6836 36.3166 42.3747 39.6505 41.805 43.3503C40.6749 50.5973 36.0143 55.1102 31.6433 57.8241C26.8052 60.8123 23.1067 61.4933 19.8471 61.7678C16.5968 62.0625 12.0016 61.5543 8.22835 59.9992C5.34235 58.7795 2.65248 56.4113 1.17679 53.3417C-0.0280427 50.8514 -0.635131 47.5379 0.943298 44.2244C2.52173 40.9109 6.22029 39.6607 8.45251 40.1892C10.6847 40.7381 11.6467 41.8053 12.1511 43.086C12.9076 45.007 12.1137 46.7756 13.0384 48.656C14.3926 51.3596 17.8017 51.3088 20.5756 51.0954C24.5263 50.8006 29.2336 47.7107 30.8307 44.0008C31.4285 42.588 31.662 41.3581 30.6346 40.1587C29.327 38.6341 27.4964 38.0649 25.6004 37.2721C22.2568 35.8491 16.3633 33.6231 11.7495 31.8444C7.59325 30.1673 2.37229 27.2502 1.58775 21.5887C0.793861 15.7443 4.1095 10.7842 8.47119 7.75527C14.0377 3.77091 20.3701 1.20953 26.9734 0.274428C32.7267 -0.477722 38.7696 0.193114 43.1312 4.21813C45.0739 6.11884 45.8491 9.01563 45.0179 11.7498C44.5789 13.0508 43.5796 14.2197 42.4681 14.982M207.082 37.1806C208.091 35.3612 208.269 32.4746 207.194 30.645C206.251 28.9679 204.579 28.2158 202.898 28.4801C199.723 29.0696 197.033 31.0211 194.203 32.5254C191.522 34.1313 188.477 37.0586 185.237 34.9648C183.425 33.4503 182.509 31.2041 182.864 28.7342C182.593 28.4394 182.201 28.3581 181.818 28.3581C180.333 28.3174 178.848 29.2729 178.045 30.7162C176.41 33.8671 177.102 38.2783 177.849 41.6528C178.97 45.5254 180.651 49.2557 183.602 52.1829C184.723 53.2502 186.544 53.362 187.973 52.8741C191.98 51.5426 195.828 49.5199 199.237 46.5215C201.46 44.7529 203.459 42.6693 205.177 40.3315C205.924 39.3151 206.522 38.2478 207.082 37.1806ZM209.371 53.0571C201.6 60.8428 193.764 63.8209 190.57 64.5019C187.534 65.1423 184.359 65.3557 181.071 63.8514C178.801 62.8045 177.344 61.534 175.663 59.9382C173.954 58.2306 172.665 56.2588 171.554 54.2056C171.479 54.043 171.208 54.0837 171.124 54.165C168.051 55.6896 164.876 56.8686 161.7 57.9664C160.598 58.3424 159.412 58.6067 158.244 58.5966C153.481 58.5966 151.725 55.1001 151.51 54.7748C151.361 54.4801 151.165 54.3987 150.763 54.5614C147.681 55.903 144.188 57.4582 141.386 58.0274C138.547 58.6169 137.454 59.1759 134.269 56.6654C131.393 54.3886 131.486 51.38 131.43 50.3127C131.196 48.4527 131.869 39.5692 132.009 35.8999C131.972 35.3612 131.775 34.8733 131.234 34.5989C130.701 34.3041 128.441 34.5989 128.049 34.6396C127.573 34.6802 127.386 34.853 127.218 35.3104C125.733 41.1345 124.079 46.8874 121.296 52.122C119.858 54.7342 117.756 57.7428 114.581 58.4644C110.92 59.3182 108.174 55.3948 106.371 52.5489C104.578 49.7029 102.962 47.2432 102.607 46.7044C102.224 46.1759 101.645 45.8812 100.777 47.0805C100.02 48.1376 95.2381 57.4378 94.2947 58.1595C92.9125 59.1962 92.0065 58.2408 91.2593 57.1024C90.7363 56.2893 86.6081 47.3041 86.2812 46.6638C86.0477 46.1657 85.5153 45.1392 84.2731 46.9586C81.7981 50.3737 78.7813 55.4863 77.0161 57.2854C75.2509 59.0844 74.018 58.9015 72.5236 57.3667C70.8518 55.6489 69.4415 52.8538 68.4608 51.4105C67.9191 50.5973 67.4988 49.6012 66.4714 50.9328C64.8837 52.9554 62.1378 56.4214 59.1117 57.9156C55.4878 59.4605 51.1822 58.3323 48.3896 55.4761C46.1947 52.8944 45.1767 49.7435 44.8685 46.2877C44.635 41.846 45.2514 37.5872 46.643 33.7858C48.3522 28.9273 51.5558 23.9672 55.9361 21.1618C60.3072 18.3769 66.9478 18.2854 70.7584 21.0805C72.7478 22.5442 73.7565 24.7193 73.3455 26.7115C72.9066 28.6935 71.9072 30.8991 70.0579 31.5395C67.4428 32.2205 65.1732 30.0453 62.9784 29.8319C60.7835 29.6184 58.4392 31.8749 57.1783 34.1618C55.6092 37.0078 54.4885 40.8702 54.6005 43.6552C54.75 46.4808 57.2344 46.6435 57.8134 46.0844C59.3171 44.6614 61.1291 42.4457 62.53 40.4738C63.7909 38.8272 64.865 36.8147 66.5835 35.6356C67.3494 35.2596 68.3954 35.2596 69.1239 35.7576C70.5436 36.6826 71.8232 38.8374 73.0467 40.8702C74.2608 42.8929 75.1388 42.1916 75.7552 41.3174C77.866 38.2987 81.3404 33.491 84.2731 29.6184C85.1137 28.5919 86.2345 27.4941 87.5888 27.8499C88.42 28.1446 89.1298 28.8663 89.6155 29.7404C90.9698 32.0883 92.1653 34.5684 93.5195 36.957C93.669 37.2111 94.2107 38.1665 95.1914 36.7944C97.7038 33.2979 98.6191 30.8585 101.094 28.3581C101.673 27.7889 102.663 27.6669 103.494 27.982C104.354 28.3174 105.661 30.269 106.689 31.8952C107.763 33.6028 110.733 39.2236 113.171 42.5575C113.404 42.8116 113.675 43.0657 114.151 42.8929C114.861 42.5575 115.076 41.7037 115.73 40.5754C116.514 39.2338 117.476 36.093 117.924 33.6638C117.962 33.5012 117.775 33.3284 117.654 33.2877C115.113 31.946 113.581 29.0594 113.787 25.9898C113.936 23.4081 115.291 20.9789 117.7 19.871C120.101 18.7733 123.071 18.946 125.21 20.6435C126.302 21.5074 126.648 22.5137 127.106 23.6826C127.302 24.0586 127.582 23.9773 127.582 23.9773C130.963 23.8147 134.176 23.4589 137.594 23.7639C139.406 24.018 141.115 25.2885 141.928 27.1485C142.619 29.0899 142.357 31.2447 142.357 33.4503C142.208 36.7232 142.087 40.3315 141.872 43.3604C141.676 46.1861 144.16 45.6169 144.674 45.3831C145.299 45.0883 147.775 44.0618 149.278 43.0657C149.278 43.0657 149.474 42.9844 149.474 42.6896C149.512 37.3737 149.362 32.1595 150.25 27.0672C150.483 25.3596 151.623 23.8655 153.5 23.3471C155.377 22.8186 157.693 23.0524 159.16 24.5567C160.028 25.4816 160.262 26.6403 160.383 27.8905C160.458 29.1509 160.038 38.0751 160.075 43.2486C160.075 44.0821 160.271 44.9562 160.981 45.4136C161.84 45.8405 162.681 45.4543 163.54 45.1188C164.39 44.7834 165.856 44.2244 166.781 43.5027C167.052 43.3401 167.052 42.9742 167.015 42.8421C166.314 38.1665 165.903 32.9116 167.052 28.2768C168.266 23.5199 170.302 20.1962 174.897 17.3706C177.727 15.6528 182.08 15.4699 185.591 16.9335C187.002 17.5231 189.019 18.7529 189.608 19.4339C189.878 19.7693 190.205 19.6474 190.672 19.3933C196.51 16.3745 203.496 13.3659 209.95 16.5778C215.413 19.2916 219.019 25.1564 219.019 31.387C219.019 36.1845 217.085 45.2916 209.333 53.0774" fill="white"/>
</g>
<defs>
<clipPath id="clip0_44_39">
<rect width="219" height="65" fill="white"/>
</clipPath>
</defs>
</svg>
