<svg width="40" height="40" viewBox="0 0 40 40" fill="none" xmlns="http://www.w3.org/2000/svg">
<path d="M6.25311 11.5429C6.21611 10.8536 5.62728 10.3247 4.93791 10.3617C4.24854 10.3987 3.71971 10.9876 3.75671 11.6769L6.25311 11.5429ZM7.86286 5.15358C7.38743 5.65413 7.40778 6.44531 7.90833 6.92076C8.40888 7.3962 9.20006 7.37585 9.67551 6.8753L7.86286 5.15358ZM17.7735 33.0205C18.358 33.3879 19.1297 33.2119 19.497 32.6274C19.8644 32.0429 19.6882 31.2712 19.1037 30.9039L17.7735 33.0205ZM25.1884 33.4307C24.5127 33.2892 23.8502 33.7224 23.7087 34.398C23.5672 35.0737 24.0002 35.7362 24.676 35.8777L25.1884 33.4307ZM26.0744 25.9062L26.8334 25.107L25.0207 23.3854L24.2617 24.1845L26.0744 25.9062ZM29.3312 24.7705L32.5154 26.6034L33.7625 24.4367L30.5784 22.6039L29.3312 24.7705ZM33.1299 30.4032L30.7624 32.8959L32.575 34.6175L34.9425 32.125L33.1299 30.4032ZM13.932 26.5979C7.47181 19.7964 6.38818 14.0593 6.25311 11.5429L3.75671 11.6769C3.92213 14.759 5.23076 21.0672 12.1194 28.3195L13.932 26.5979ZM16.2243 15.536L16.7024 15.0327L14.8896 13.311L14.4116 13.8143L16.2243 15.536ZM17.0779 8.7669L14.9762 5.79441L12.9349 7.2377L15.0365 10.2102L17.0779 8.7669ZM15.3179 14.6751C14.4116 13.8143 14.4105 13.8155 14.4093 13.8167C14.4089 13.8172 14.4077 13.8184 14.4069 13.8192C14.4054 13.8209 14.4037 13.8226 14.4021 13.8244C14.3988 13.8279 14.3954 13.8316 14.3919 13.8355C14.3849 13.8432 14.3775 13.8515 14.3697 13.8604C14.3541 13.8784 14.337 13.8989 14.3187 13.922C14.2821 13.9683 14.2406 14.0252 14.1971 14.0932C14.1099 14.2294 14.0154 14.4089 13.9353 14.6339C13.7725 15.0915 13.6837 15.6975 13.7946 16.4543C14.0125 17.9412 14.9867 19.9407 17.5324 22.6207L19.345 20.899C16.9655 18.3939 16.3794 16.851 16.2682 16.0919C16.2145 15.7256 16.2691 15.5326 16.2906 15.472C16.3027 15.438 16.3107 15.4285 16.3029 15.4406C16.2992 15.4465 16.2917 15.4575 16.2791 15.4735C16.2727 15.4814 16.2652 15.4906 16.2561 15.5011C16.2516 15.5063 16.2467 15.5118 16.2414 15.5176C16.2387 15.5205 16.236 15.5235 16.2331 15.5266C16.2317 15.5281 16.2302 15.5297 16.2288 15.5312C16.228 15.532 16.2269 15.5332 16.2265 15.5336C16.2254 15.5348 16.2243 15.536 15.3179 14.6751ZM17.5324 22.6207C20.0704 25.2929 21.9874 26.3434 23.4499 26.5809C24.2002 26.7027 24.8077 26.6054 25.2677 26.424C25.4925 26.3354 25.6705 26.2312 25.804 26.1365C25.8705 26.0892 25.926 26.0444 25.9709 26.0052C25.9932 25.9855 26.013 25.9672 26.0302 25.9505C26.0389 25.9424 26.0467 25.9344 26.054 25.927C26.0577 25.9234 26.0614 25.9197 26.0647 25.9162C26.0664 25.9145 26.068 25.9129 26.0695 25.9112C26.0704 25.9104 26.0715 25.909 26.072 25.9087C26.0732 25.9074 26.0744 25.9062 25.168 25.0454C24.2617 24.1845 24.2629 24.1834 24.2639 24.1822C24.2644 24.1817 24.2654 24.1805 24.2662 24.1797C24.2677 24.1782 24.2692 24.1767 24.2705 24.1752C24.2735 24.1722 24.2764 24.1692 24.2792 24.1664C24.2847 24.1609 24.29 24.1555 24.295 24.1507C24.3052 24.141 24.3142 24.1327 24.3222 24.1257C24.3382 24.1117 24.35 24.1027 24.3577 24.0974C24.3732 24.0862 24.3717 24.09 24.3504 24.0984C24.3182 24.111 24.1669 24.1645 23.8505 24.1132C23.1797 24.0042 21.7319 23.412 19.345 20.899L17.5324 22.6207ZM14.9762 5.79441C13.2869 3.40511 9.90649 3.00201 7.86286 5.15358L9.67551 6.8753C10.5469 5.95788 12.0809 6.02995 12.9349 7.2377L14.9762 5.79441ZM30.7624 32.8959C30.2972 33.3855 29.8107 33.6479 29.3377 33.6945L29.5834 36.1825C30.8284 36.0595 31.836 35.3955 32.575 34.6175L30.7624 32.8959ZM16.7024 15.0327C18.3149 13.3349 18.429 10.678 17.0779 8.7669L15.0365 10.2102C15.7401 11.2053 15.6322 12.5292 14.8896 13.311L16.7024 15.0327ZM32.5154 26.6034C33.8835 27.3909 34.1512 29.328 33.1299 30.4032L34.9425 32.125C37.1175 29.8352 36.484 26.0032 33.7625 24.4367L32.5154 26.6034ZM26.8334 25.107C27.4757 24.4307 28.4767 24.2787 29.3312 24.7705L30.5784 22.6039C28.7475 21.55 26.477 21.8522 25.0207 23.3854L26.8334 25.107ZM19.1037 30.9039C17.4642 29.8735 15.7192 28.4794 13.932 26.5979L12.1194 28.3195C14.0428 30.3445 15.9483 31.8735 17.7735 33.0205L19.1037 30.9039ZM29.3377 33.6945C28.4269 33.7845 26.9854 33.807 25.1884 33.4307L24.676 35.8777C26.7569 36.3134 28.457 36.2937 29.5834 36.1825L29.3377 33.6945Z" fill="#FF9E9E"/>
</svg>
